<svg xmlns="http://www.w3.org/2000/svg" viewBox="0 0 1024 1024">
  <rect width="1024" height="1024" fill="#000"/>
  <path d="M184 350c0-50 40-90 90-90h184c26 0 50 11 67 30l46 52c17 19 41 30 67 30h150c50 0 90 40 90 90v270c0 50-40 90-90 90H274c-50 0-90-40-90-90V350Z" fill="#0A84FF"/>
  <path d="M224 372c0-38 31-69 69-69h159c21 0 40 9 54 25l49 55c14 16 33 25 54 25h159c38 0 69 31 69 69v45H224V372Z" fill="#65C8FF"/>
  <path d="M184 494h694v238c0 50-40 90-90 90H274c-50 0-90-40-90-90V494Z" fill="#0A84FF"/>
  <path d="M259 565h506" stroke="#BFE7FF" stroke-width="40" stroke-linecap="round" opacity=".42"/>
</svg>
